<svg xmlns="http://www.w3.org/2000/svg" xmlns:xlink="http://www.w3.org/1999/xlink" version="1.1" x="0px" y="0px" viewBox="0 0 512 640" style="enable-background:new 0 0 512 512;" xml:space="preserve"><g><g><g><g><path d="M192,490H51c-15.991,0-29-13.009-29-29V136h30v324h140V490z"/><path d="M182,151H37c-8.284,0-15-6.716-15-15V51c0-15.991,13.009-29,29-29h131c8.284,0,15,6.716,15,15v99      C197,144.284,190.284,151,182,151z M52,121h115V52H52V121z"/><path d="M461,490H330v-30h130V136h30v325C490,476.991,476.991,490,461,490z"/><path d="M475,151H330c-8.284,0-15-6.716-15-15V37c0-8.284,6.716-15,15-15h131c15.991,0,29,13.009,29,29v85      C490,144.284,483.284,151,475,151z M345,121h115V52H345V121z"/><path d="M330,151H182c-8.284,0-15-6.716-15-15V37c0-8.284,6.716-15,15-15h148c8.284,0,15,6.716,15,15v99      C345,144.284,338.284,151,330,151z M197,121h118V52H197V121z"/><path d="M330,490H182v-30h133V182.076h30V475C345,483.284,338.284,490,330,490z"/><rect x="167" y="136" width="30" height="295.581"/></g><rect x="79" y="70" width="62" height="30"/><rect x="372" y="70" width="62" height="30"/></g><g><rect x="224.5" y="202" width="62" height="30"/><rect x="224.5" y="291" width="62" height="30"/><rect x="224.5" y="379" width="62" height="30"/></g><g><rect x="225" y="70" width="62" height="30"/><rect x="78.5" y="202" width="62" height="30"/><rect x="371.5" y="202" width="62" height="30"/><rect x="371.5" y="292" width="62" height="30"/><rect x="78.5" y="292" width="62" height="30"/></g></g></g><text x="0" y="527" fill="#000000" font-size="5px" font-weight="bold" font-family="'Helvetica Neue', Helvetica, Arial-Unicode, Arial, Sans-serif">Created by Shocho</text><text x="0" y="532" fill="#000000" font-size="5px" font-weight="bold" font-family="'Helvetica Neue', Helvetica, Arial-Unicode, Arial, Sans-serif">from the Noun Project</text></svg>